<?xml version='1.0' encoding='UTF-8'?>
<svg xmlns="http://www.w3.org/2000/svg" id="Front" viewBox="0 0 153.07 240.94">
  <rect width="153.07" height="240.94" fill="#fff"/>
  <g>
    <polygon points="153.07 98.23 153.07 183.03 110.68 140.63 153.07 98.23" fill="#1b1464" id="bgColor"/>
    <polygon points="68.13 53.48 20.79 100.83 -.09 79.95 -.09 27.02 20.79 6.14 68.13 53.48" fill="#1b1464" id="bgColor1"/>
    <rect x="32.32" y="88.19" width="39.14" height="39.14" transform="translate(91.4 -5.13) rotate(45)" fill="#1b1464" id="bgColor2"/>
    <polygon points="153.07 0 153.07 54.8 150.27 57.6 108.21 15.54 123.75 0 153.07 0" fill="#1b1464" id="bgColor4"/>
    <polygon points="153.07 67.49 153.07 90.77 111.01 132.83 57.31 79.13 111.01 25.43 153.07 67.49" fill="none" stroke="#1b1464" stroke-miterlimit="10" id="userImagePolygonBorder bgColor3"/>
    <polygon points="27.68 123.19 0 150.87 -.09 150.78 -.09 95.6 0 95.51 27.68 123.19" fill="#1b1464" id="bgColor5"/>
    <defs>
      <clipPath id="polygonClip">
        <polygon points="153.07 67.49 153.07 90.77 111.01 132.83 57.31 79.13 111.01 25.43 153.07 67.49"/>
      </clipPath>
    </defs>
    <image xmlns:ns1="http://www.w3.org/1999/xlink" id="userImage" ns1:href="https://via.placeholder.com/120" x="60" y="30" width="100" height="100" clip-path="url(#polygonClip)" preserveAspectRatio="xMidYMid slice"/>
  </g>
  <polygon points="153.07 107.36 153.07 173.89 119.81 140.63 153.07 107.36" fill="#fff"/>
  <polygon points="58.81 53.48 20.79 91.51 -.09 70.62 -.09 36.34 20.79 15.46 58.81 53.48" fill="#fff"/>
  <text transform="translate(14.77 173.69)" fill="#1b1464" font-family="Montserrat-SemiBold, Montserrat" font-size="13" font-variation-settings="'wght' 600" font-weight="600">
    <tspan x="0" y="0" id="name">venki</tspan>
    <tspan x="36.63" y="0" letter-spacing="0em">W</tspan>
    <tspan x="51.38" y="0">i</tspan>
    <tspan x="55.13" y="0" letter-spacing="0em">c</tspan>
    <tspan x="62.62" y="0">k</tspan>
  </text>
  <text transform="translate(14.48 183.05)" fill="#1b1464" font-family="Montserrat-Medium, Montserrat" font-size="6" font-variation-settings="'wght' 500" font-weight="500">
    <tspan x="0" y="0">G</tspan>
    <tspan x="4.63" y="0" letter-spacing="-.04em">r</tspan>
    <tspan x="6.83" y="0" id="role">Graphdesigner</tspan>
  </text>
  <text transform="translate(14.93 219.43)" fill="#1b1464" font-family="Montserrat-Regular, Montserrat" font-size="6" font-variation-settings="'wght' 400">
    <tspan x="0" y="0">ID : </tspan>
    <tspan x="11.18" y="0" letter-spacing="0em">53</tspan>
    <tspan x="17.9" y="0">25</tspan>
    <tspan x="24.71" y="0" letter-spacing="0em">4</tspan>
    <tspan x="28.66" y="0" letter-spacing="0em">2</tspan>
    <tspan x="32.07" y="0" letter-spacing="-.01em">3</tspan>
    <tspan x="35.38" y="0" letter-spacing="-.07em">7</tspan>
    <tspan x="38.52" y="0" letter-spacing="0em">46</tspan>
    <tspan x="46.14" y="0" letter-spacing="0em">2</tspan>
    <tspan x="49.54" y="0" letter-spacing="0em">7</tspan>
  </text>
</svg>
